<svg width="21" height="20" viewBox="0 0 21 20" fill="none" xmlns="http://www.w3.org/2000/svg">
<path d="M15.237 5.42633C15.237 8.07448 13.1118 10.2131 10.5001 10.2131C7.88837 10.2131 5.76311 8.07448 5.76311 5.42633C5.76311 2.77818 7.88837 0.639526 10.5001 0.639526C13.1118 0.639526 15.237 2.77818 15.237 5.42633ZM19.5506 18.1559C19.6533 18.4965 19.5628 18.8062 19.3463 19.0463C19.1223 19.2946 18.7617 19.4651 18.3555 19.4651H2.64463C2.23841 19.4651 1.8778 19.2946 1.65386 19.0463C1.43732 18.8062 1.3468 18.4965 1.44949 18.1559C1.84539 16.8426 2.67204 15.6168 3.87489 14.6249C5.61845 13.187 8.0006 12.3674 10.5001 12.3674C12.9995 12.3674 15.3817 13.187 17.1252 14.6249C18.3281 15.6168 19.1547 16.8426 19.5506 18.1559Z" stroke="#666666"/>
</svg>
