<svg width="51" height="51" viewBox="0 0 51 51" fill="none" xmlns="http://www.w3.org/2000/svg">
<circle cx="25.5" cy="25.5" r="25.5" fill="#F8D548"/>
<path d="M17.8195 33.8129C21.4843 35.4977 26.9693 35.0602 29.5541 34.7225C30.2526 34.6313 30.8609 35.2486 30.7322 35.9413L30.0962 39.3635C29.927 40.2737 30.9382 40.865 31.6134 40.2317C34.8835 37.1644 41 30.5677 41 24.1372C41 17.284 38.3794 12.7083 31.7939 10.2132C27.8652 8.72471 23.1503 8.29141 17.8195 10.7401C11.675 13.5625 9.27981 18.5012 10.1851 24.3546C10.9012 28.9852 13.3745 31.7693 17.8195 33.8129Z" fill="#2B2A28" stroke="#2B2A28"/>
<path d="M28.9157 34.6026C29.42 34.5441 29.8005 34.117 29.8005 33.6092V28.1388C32.2987 28.1388 33.4649 27.6109 34.8732 26.5172C36.2911 25.4146 37 23.9119 37 22.0091C37 20.7553 36.6769 19.6394 36.0306 18.6613C35.3844 17.6743 34.4584 16.9141 33.2527 16.3805C32.0567 15.847 30.6677 15.5803 29.0859 15.5803H28.3027C26.748 15.5803 25.4876 16.7422 25.4876 18.1754V19.6227H29.187C30.2576 19.6405 31.2474 19.8889 31.6953 20.3214C32.1432 20.754 32.4166 21.1524 32.4713 22.0349C32.4713 22.9596 32.3123 23.6718 31.7046 24.1698C31.1066 24.6677 30.2337 24.9167 29.0859 24.9167H27.4546C26.3682 24.9167 25.4876 25.7285 25.4876 26.73V33.8774C25.4876 34.4753 26.0088 34.9396 26.6028 34.8707L28.9157 34.6026Z" fill="#F8D548"/>
<path d="M15.8151 24.4198C14.2604 24.4198 13 23.2579 13 21.8246V7.59519C13 6.16193 14.2604 5.00004 15.8151 5.00004H20.3788C21.7161 5.00004 23.8274 4.9834 25.2169 5.63219C26.2606 6.11949 27.1658 7.09612 27.4004 9.49165C27.4932 10.4392 27.1008 11.5407 26.5703 12.2698C26.0398 12.99 25.2594 13.1796 24.3142 13.5175C25.9387 13.767 27.2968 14.8078 27.9238 15.5636C28.5507 16.3194 28.6546 17.6175 28.6546 18.7112C28.6546 20.5785 28.0084 21.9923 26.7159 22.9526C25.4234 23.9129 23.5811 24.402 21.189 24.4198H15.8151ZM17.3405 15.9636V21.2054H21.0588C22.0812 21.2054 22.877 20.9831 23.4461 20.5385C24.0248 20.085 24.3142 19.4626 24.3142 18.6712C24.3142 16.8928 23.3159 15.9903 21.3192 15.9636H17.3405ZM17.3405 12.2698H20.3788C22.5683 12.2342 23 11.2327 23 10C23 9.11971 22.379 8.74953 22 8.5C21.3504 8.16729 21.5748 8.24111 20.3788 8.24111H17.3405V12.2698Z" fill="#F8D548"/>
<path d="M28.9157 34.6026C29.42 34.5441 29.8005 34.117 29.8005 33.6092V28.1388C32.2987 28.1388 33.4649 27.6109 34.8732 26.5172C36.2911 25.4146 37 23.9119 37 22.0091C37 20.7553 36.6769 19.6394 36.0306 18.6613C35.3844 17.6743 34.4584 16.9141 33.2527 16.3805C32.0567 15.847 30.6677 15.5803 29.0859 15.5803H28.3027C26.748 15.5803 25.4876 16.7422 25.4876 18.1754V19.6227H29.187C30.2576 19.6405 31.2474 19.8889 31.6953 20.3214C32.1432 20.754 32.4166 21.1524 32.4713 22.0349C32.4713 22.9596 32.3123 23.6718 31.7046 24.1698C31.1066 24.6677 30.2337 24.9167 29.0859 24.9167H27.4546C26.3682 24.9167 25.4876 25.7285 25.4876 26.73V33.8774C25.4876 34.4753 26.0088 34.9396 26.6028 34.8707L28.9157 34.6026Z" stroke="#F8D548" stroke-width="0.5"/>
<path d="M15.8151 24.4198C14.2604 24.4198 13 23.2579 13 21.8246V7.59519C13 6.16193 14.2604 5.00004 15.8151 5.00004H20.3788C21.7161 5.00004 23.8274 4.9834 25.2169 5.63219C26.2606 6.11949 27.1658 7.09612 27.4004 9.49165C27.4932 10.4392 27.1008 11.5407 26.5703 12.2698C26.0398 12.99 25.2594 13.1796 24.3142 13.5175C25.9387 13.767 27.2968 14.8078 27.9238 15.5636C28.5507 16.3194 28.6546 17.6175 28.6546 18.7112C28.6546 20.5785 28.0084 21.9923 26.7159 22.9526C25.4234 23.9129 23.5811 24.402 21.189 24.4198H15.8151ZM17.3405 15.9636V21.2054H21.0588C22.0812 21.2054 22.877 20.9831 23.4461 20.5385C24.0248 20.085 24.3142 19.4626 24.3142 18.6712C24.3142 16.8928 23.3159 15.9903 21.3192 15.9636H17.3405ZM17.3405 12.2698H20.3788C22.5683 12.2342 23 11.2327 23 10C23 9.11971 22.379 8.74953 22 8.5C21.3504 8.16729 21.5748 8.24111 20.3788 8.24111H17.3405V12.2698Z" stroke="#F8D548" stroke-width="0.5"/>
</svg>
