<svg width="21" height="22" viewBox="0 0 21 22" fill="none" xmlns="http://www.w3.org/2000/svg">
<path d="M6.00328 4.76337L4.907 4.76337C2.69785 4.76336 0.906982 6.55423 0.906982 8.76337V10.2398M6.00328 4.76337L11.0996 4.76339L15.5963 4.82453M6.00328 4.76337V4.76337C6.00328 2.76198 7.62573 1.13953 9.62712 1.13953H11.9113C13.9465 1.13953 15.5963 2.78936 15.5963 4.82453V4.82453M15.5963 4.82453L16.1474 4.83202C18.3351 4.86176 20.093 6.64372 20.093 8.83165V10.2398M0.906982 10.2398V16.9651C0.906982 19.1743 2.69784 20.9651 4.90698 20.9651H16.093C18.3022 20.9651 20.093 19.1742 20.093 16.9651V10.2398M0.906982 10.2398C0.906982 10.2398 5.32703 11.9862 9.0011 12.4188M20.093 10.2398C20.093 10.2398 15.673 11.9862 11.9989 12.4188M9.0011 12.4188C9.52051 12.48 10.025 12.5149 10.5 12.5149C10.975 12.5149 11.4795 12.48 11.9989 12.4188M9.0011 12.4188V12.2597C9.0011 11.4318 9.67218 10.7608 10.5 10.7608V10.7608C11.3278 10.7608 11.9989 11.4318 11.9989 12.2597V12.4188M9.0011 12.4188V12.641C9.0011 13.4688 9.67218 14.1399 10.5 14.1399V14.1399C11.3278 14.1399 11.9989 13.4688 11.9989 12.641V12.4188" stroke="#666666"/>
</svg>
