<svg width="20" height="20" viewBox="0 0 20 20" fill="none" xmlns="http://www.w3.org/2000/svg">
<path fill-rule="evenodd" clip-rule="evenodd" d="M3.70606 0.737703C3.70606 0.407356 3.97234 0.139557 4.30082 0.139557H4.79061C5.11909 0.139557 5.38537 0.407356 5.38537 0.737704V1.8914L5.66516 1.8914L10.4232 1.89142L14.3416 1.89141V0.737703C14.3416 0.407356 14.6079 0.139557 14.9364 0.139557H15.4262C15.7547 0.139557 16.0209 0.407356 16.0209 0.737704V2.05352C17.923 2.57908 19.3197 4.32213 19.3197 6.3914V6.89508V15.2802C19.3197 17.7655 17.305 19.7802 14.8197 19.7802H4.90714C2.42185 19.7802 0.407135 17.7655 0.407135 15.2802V6.89508V6.3914C0.407135 4.32207 1.8039 2.57897 3.70606 2.05347V0.737703ZM3.70606 3.48214V3.10292C2.36467 3.59298 1.40714 4.88037 1.40714 6.3914V6.39508H18.3197V6.3914C18.3197 4.88043 17.3622 3.59309 16.0209 3.10299V3.48214C16.0209 3.81249 15.7547 4.08029 15.4262 4.08029H14.9364C14.6079 4.08029 14.3416 3.81249 14.3416 3.48214V2.89141L10.4232 2.89142L5.66516 2.8914L5.38537 2.8914V3.48214C5.38537 3.81249 5.11909 4.08029 4.79061 4.08029H4.30082C3.97234 4.08029 3.70606 3.81249 3.70606 3.48214ZM18.3197 7.39508H1.40714V15.2802C1.40714 17.2132 2.97414 18.7802 4.90714 18.7802H14.8197C16.7527 18.7802 18.3197 17.2132 18.3197 15.2802V7.39508ZM5.38528 11.9617C6.00359 11.9617 6.50482 11.4577 6.50482 10.8358C6.50482 10.214 6.00359 9.7099 5.38528 9.7099C4.76698 9.7099 4.26575 10.214 4.26575 10.8358C4.26575 11.4577 4.76698 11.9617 5.38528 11.9617ZM9.86341 11.9617C10.4817 11.9617 10.9829 11.4577 10.9829 10.8358C10.9829 10.214 10.4817 9.7099 9.86341 9.7099C9.24511 9.7099 8.74388 10.214 8.74388 10.8358C8.74388 11.4577 9.24511 11.9617 9.86341 11.9617ZM15.4611 10.8358C15.4611 11.4577 14.9599 11.9617 14.3416 11.9617C13.7233 11.9617 13.222 11.4577 13.222 10.8358C13.222 10.214 13.7233 9.7099 14.3416 9.7099C14.9599 9.7099 15.4611 10.214 15.4611 10.8358ZM5.38528 16.4653C6.00359 16.4653 6.50482 15.9612 6.50482 15.3394C6.50482 14.7175 6.00359 14.2134 5.38528 14.2134C4.76698 14.2134 4.26575 14.7175 4.26575 15.3394C4.26575 15.9612 4.76698 16.4653 5.38528 16.4653ZM10.9829 15.3394C10.9829 15.9612 10.4817 16.4653 9.86341 16.4653C9.24511 16.4653 8.74388 15.9612 8.74388 15.3394C8.74388 14.7175 9.24511 14.2134 9.86341 14.2134C10.4817 14.2134 10.9829 14.7175 10.9829 15.3394ZM14.3416 16.4653C14.9599 16.4653 15.4611 15.9612 15.4611 15.3394C15.4611 14.7175 14.9599 14.2134 14.3416 14.2134C13.7233 14.2134 13.222 14.7175 13.222 15.3394C13.222 15.9612 13.7233 16.4653 14.3416 16.4653Z" fill="#666666"/>
</svg>
